<?xml version="1.0" standalone="no"?>
<!DOCTYPE svg PUBLIC "-//W3C//DTD SVG 20010904//EN"
 "http://www.w3.org/TR/2001/REC-SVG-20010904/DTD/svg10.dtd">
<svg version="1.0" xmlns="http://www.w3.org/2000/svg"
 width="128.000000pt" height="128.000000pt" viewBox="0 0 128.000000 128.000000"
 preserveAspectRatio="xMidYMid meet">

<g transform="translate(0.000000,128.000000) scale(0.100000,-0.100000)"
fill="#000000" stroke="none">
<path d="M542 1248 c-6 -6 -25 -11 -42 -10 -16 0 -30 -4 -30 -9 0 -5 -9 -9
-20 -9 -11 0 -20 -4 -20 -10 0 -16 32 -12 45 6 9 13 16 14 31 6 18 -11 18 -11
-3 -12 -12 0 -29 -10 -37 -22 -12 -17 -18 -20 -28 -10 -14 14 -64 16 -72 3 -3
-5 9 -8 26 -7 27 1 33 -3 34 -21 1 -24 -10 -31 -21 -13 -3 6 -14 9 -23 9 -15
-1 -15 -2 1 -6 30 -8 17 -29 -15 -24 -5 0 -8 -4 -8 -9 0 -5 -10 -10 -22 -10
-19 0 -20 2 -8 11 12 8 12 10 1 7 -14 -4 -19 -19 -24 -65 -1 -11 -5 -19 -8
-17 -4 2 -9 -3 -13 -11 -5 -13 39 -107 66 -142 6 -7 3 -21 -8 -38 l-18 -27
-13 53 c-16 64 -73 169 -91 169 -7 0 -17 -12 -23 -27 -12 -31 -3 -97 12 -88 5
4 9 1 9 -4 0 -6 -7 -11 -15 -11 -8 0 -15 -7 -15 -15 0 -28 31 -15 45 18 9 23
10 36 3 45 -8 9 -8 16 1 25 10 9 11 8 5 -7 -5 -14 -4 -17 4 -12 24 15 23 -24
-2 -67 -14 -24 -26 -55 -26 -70 0 -14 -8 -33 -17 -43 -17 -17 -18 -17 -21 10
-2 15 4 36 12 45 9 10 16 22 16 27 0 5 -11 -4 -24 -20 -20 -26 -22 -35 -14
-65 7 -26 6 -49 -6 -90 -8 -31 -20 -99 -26 -151 -5 -52 -15 -110 -22 -128 -11
-28 -10 -34 2 -42 21 -14 26 -12 26 8 2 63 29 302 35 302 11 0 10 -132 -1
-145 -6 -7 -5 -23 3 -44 11 -29 10 -34 -7 -46 -14 -10 -18 -27 -18 -64 0 -35
-4 -49 -12 -44 -6 3 -8 3 -4 -2 4 -4 3 -14 -4 -22 -6 -7 -8 -16 -5 -19 13 -13
25 6 75 116 11 24 11 24 6 -5 -4 -16 -12 -43 -20 -59 -8 -16 -11 -32 -8 -37 3
-5 0 -8 -8 -7 -7 2 -13 -6 -13 -17 0 -11 -6 -20 -13 -20 -27 0 -31 -28 -10
-69 l21 -40 24 29 c18 21 23 24 18 10 -20 -60 -18 -70 20 -88 32 -15 36 -15
42 -1 5 13 10 11 28 -12 l23 -29 22 74 c18 60 24 71 38 66 62 -27 102 -17 152
38 28 30 40 37 44 27 2 -8 15 -60 28 -115 25 -109 18 -103 100 -89 33 6 37 4
40 -17 3 -21 8 -24 40 -23 63 2 67 6 57 61 -5 26 -12 56 -15 67 -4 11 -2 16 4
12 5 -3 15 -25 21 -48 18 -72 25 -76 68 -52 21 12 54 24 74 28 35 6 36 7 33
49 -2 23 -1 35 3 27 3 -8 12 -23 21 -32 14 -17 17 -16 54 4 32 18 39 27 35 46
-3 17 -1 21 12 17 12 -4 22 5 34 30 22 47 21 71 -4 106 -17 24 -18 33 -9 44
10 12 8 26 -13 73 -35 77 -57 164 -46 177 12 12 11 41 0 63 -5 9 -22 64 -36
122 -32 125 -44 160 -57 160 -5 0 -7 9 -3 20 5 15 3 18 -8 14 -9 -3 -29 8 -49
27 l-33 32 36 -26 c37 -27 49 -26 49 2 0 12 -2 13 -8 3 -6 -9 -13 -7 -28 10
-35 40 -50 62 -36 54 24 -14 12 10 -20 41 -64 60 -340 127 -376 91z m58 -52
c0 -2 -7 -7 -16 -10 -8 -3 -12 -2 -9 4 6 10 25 14 25 6z m20 -20 c0 -2 -7 -6
-15 -10 -8 -3 -15 -1 -15 4 0 6 7 10 15 10 8 0 15 -2 15 -4z m-130 -16 c0 -5
-8 -10 -17 -10 -15 0 -16 -2 -3 -10 13 -8 12 -10 -3 -10 -14 0 -17 -5 -12 -21
5 -15 4 -19 -4 -15 -17 11 -13 54 7 65 22 13 32 14 32 1z m145 -10 c3 -5 -3
-10 -15 -10 -12 0 -18 5 -15 10 3 6 10 10 15 10 5 0 12 -4 15 -10z m110 -3
c12 4 16 3 11 -5 -10 -16 -65 -12 -59 5 4 10 9 11 18 3 7 -6 21 -7 30 -3z
m-78 -10 c-3 -8 -1 -20 3 -27 7 -11 11 -11 24 -1 8 7 19 10 25 7 5 -3 21 -2
36 4 17 7 24 7 20 0 -3 -6 -13 -10 -20 -10 -8 0 -12 -6 -9 -14 3 -8 1 -24 -6
-35 -6 -12 -7 -21 -2 -21 5 0 14 10 21 23 6 12 9 14 7 5 -7 -22 7 -23 39 -2
15 10 25 12 25 5 0 -6 -4 -11 -9 -11 -5 0 -23 -11 -40 -25 -29 -25 -29 -26
-15 -61 8 -20 13 -38 11 -41 -3 -2 -11 11 -17 30 -11 28 -17 33 -36 29 -13 -2
-21 -9 -17 -15 3 -6 1 -7 -6 -3 -7 5 -38 -15 -79 -50 -40 -35 -53 -43 -33 -21
43 45 34 47 -25 6 -25 -17 -53 -32 -61 -33 -9 -2 -22 -11 -29 -21 -12 -16 -14
-16 -14 -3 0 13 18 28 40 32 3 1 49 30 103 66 78 50 97 68 93 83 -3 13 0 17 9
13 9 -3 12 0 9 9 -4 10 -12 11 -27 6 -27 -10 -47 -4 -47 14 0 7 -6 16 -12 19
-7 3 -3 3 10 0 30 -7 28 2 -5 21 -23 13 -24 15 -5 10 15 -4 24 -1 28 9 3 9 8
16 11 16 3 0 3 -6 0 -13z m-78 -11 c9 -10 8 -15 -4 -19 -8 -4 -14 -1 -12 5 1
6 -9 15 -23 19 l-25 7 26 1 c15 1 32 -5 38 -13z m-182 -38 c-3 -8 -6 -5 -6 6
-1 11 2 17 5 13 3 -3 4 -12 1 -19z m223 -23 c10 -12 7 -17 -14 -26 -20 -10
-29 -10 -38 -1 -9 9 -8 12 5 12 9 0 17 7 17 15 0 19 14 19 30 0z m302 -71 c2
-19 1 -39 -2 -45 -4 -5 -7 7 -8 27 -1 20 -9 48 -18 63 -17 26 -17 26 3 8 12
-10 23 -34 25 -53z m-357 -17 c-16 -12 -55 -42 -85 -66 -30 -24 -46 -34 -35
-21 22 25 133 110 144 110 3 0 -7 -11 -24 -23z m-65 -17 c0 -5 -4 -10 -10 -10
-5 0 -10 5 -10 10 0 6 5 10 10 10 6 0 10 -4 10 -10z m227 -12 c-3 -8 -6 -5 -6
6 -1 11 2 17 5 13 3 -3 4 -12 1 -19z m133 12 c0 -5 -15 -9 -32 -9 l-33 1 30 8
c17 4 31 8 33 9 1 0 2 -3 2 -9z m-418 -42 c-17 -18 -23 -19 -36 -8 -24 19 -19
28 17 32 42 4 45 1 19 -24z m423 12 c-3 -5 -14 -10 -23 -9 -14 0 -13 2 3 9 27
11 27 11 20 0z m-118 -16 c-3 -4 4 -15 16 -25 14 -11 17 -18 8 -19 -7 0 -11
-6 -7 -15 3 -9 0 -15 -10 -15 -12 0 -13 4 -4 21 10 17 8 21 -9 26 -25 6 -28
33 -4 33 9 0 14 -3 10 -6z m168 -3 c10 -17 -29 -30 -65 -21 l-35 8 33 1 c17 1
32 6 32 11 0 13 27 13 35 1z m-621 -57 c5 -18 2 -22 -19 -27 -20 -3 -25 -1
-21 10 4 8 9 26 12 40 7 27 15 20 28 -23z m386 22 c0 -7 3 -7 8 2 5 8 18 -13
36 -59 28 -72 30 -109 2 -48 -11 26 -14 28 -10 9 4 -21 1 -26 -15 -27 -12 -1
-25 6 -31 17 -8 14 -5 19 11 23 12 3 18 10 14 16 -3 6 -10 9 -15 6 -11 -7 -40
5 -40 17 0 5 9 6 20 3 14 -5 20 -2 20 9 0 9 -6 16 -12 16 -7 0 -20 5 -28 10
-13 9 -13 11 -1 19 17 11 41 3 41 -13z m-74 -8 c0 -24 -12 -38 -33 -38 -21 0
-15 26 10 43 12 9 22 16 22 16 1 1 1 -9 1 -21z m251 -30 c3 -7 -8 -2 -25 10
-17 13 -35 28 -39 34 -3 7 8 2 25 -10 17 -13 35 -28 39 -34z m-475 0 c-9 -9
-7 -14 5 -23 14 -10 12 -14 -16 -34 -17 -12 -31 -27 -31 -34 0 -6 13 2 30 18
16 16 33 25 37 21 4 -3 -5 -18 -19 -31 -15 -14 -43 -53 -63 -87 -72 -123 -98
-137 -49 -27 22 48 24 62 14 74 -9 10 -9 15 -1 15 6 0 11 -5 11 -11 0 -5 5 -7
10 -4 17 10 11 23 -12 27 -12 2 -23 8 -25 14 -2 7 5 10 21 7 21 -4 28 1 45 35
18 35 31 48 51 51 2 1 -1 -4 -8 -11z m438 -13 c-12 -15 3 -23 37 -20 12 1 20
-2 17 -7 -3 -4 -1 -15 4 -23 7 -13 10 -11 21 11 6 15 14 24 17 21 9 -9 -42
-78 -51 -69 -5 4 -5 2 -2 -5 6 -9 -106 -193 -116 -193 -2 0 -3 9 -3 19 0 11 5
19 11 18 5 -1 10 5 10 13 0 8 -6 14 -12 13 -7 -2 -13 2 -13 8 0 5 -5 7 -12 3
-7 -4 -8 -3 -4 5 4 6 11 9 16 6 4 -3 10 4 13 15 3 13 1 18 -6 13 -7 -4 -8 0
-3 13 16 41 23 102 13 120 -8 14 -7 16 7 11 12 -5 16 -3 13 5 -6 18 22 48 39
41 11 -4 12 -9 4 -18z m-360 -20 c0 -15 -6 -25 -15 -25 -8 0 -12 -6 -9 -14 6
-17 -11 -30 -27 -20 -8 4 -8 9 0 17 6 6 11 18 11 27 0 17 18 40 32 40 4 0 8
-11 8 -25z m60 -37 c0 -5 -9 -8 -20 -8 -16 0 -20 7 -20 33 l0 32 20 -25 c11
-14 20 -28 20 -32z m130 13 c0 -8 -23 -19 -73 -35 -12 -4 -17 -2 -14 6 2 7 13
12 24 10 11 -1 26 4 33 13 14 16 30 20 30 6z m-95 -13 c-3 -7 -19 -21 -36 -31
-23 -13 -35 -14 -47 -6 -16 10 -16 10 0 5 9 -3 32 6 50 19 40 28 38 28 33 13z
m-368 -30 c-3 -7 -5 -2 -5 12 0 14 2 19 5 13 2 -7 2 -19 0 -25z m42 -73 l0
-20 -9 20 c-5 11 -8 38 -8 60 l0 40 9 -40 c4 -22 8 -49 8 -60z m396 55 c-21
-23 -45 -26 -45 -7 0 20 10 27 38 27 24 0 25 -1 7 -20z m36 -7 c-6 -10 -11
-14 -11 -9 0 5 -10 1 -22 -10 -13 -10 -10 -4 6 14 31 33 45 36 27 5z m-97 -8
c-3 -7 0 -16 6 -20 8 -5 6 -12 -5 -25 -16 -18 -18 -18 -40 8 l-24 27 21 16
c24 19 50 15 42 -6z m-88 -102 c-3 -3 -12 0 -21 7 -14 12 -14 15 0 30 8 9 16
25 17 36 1 10 3 -1 5 -25 3 -23 2 -46 -1 -48z m400 44 c2 -7 0 -24 -5 -38 -10
-24 -10 -24 -10 -1 -1 13 -7 22 -17 22 -14 0 -14 3 -4 15 15 18 29 19 36 2z
m-486 -3 c0 -3 -5 -14 -10 -24 -9 -18 -7 -19 25 -18 20 1 41 -4 47 -10 8 -8
-1 -10 -35 -6 -25 3 -55 0 -67 -6 -26 -14 -62 3 -53 26 3 8 12 13 20 10 9 -4
11 -1 7 5 -4 7 -1 10 7 7 8 -3 20 1 27 9 14 13 32 18 32 7z m-140 -25 c0 -6
-4 -7 -10 -4 -5 3 -10 11 -10 16 0 6 5 7 10 4 6 -3 10 -11 10 -16z m397 -31
c7 -16 11 -28 9 -28 -8 0 -36 58 -35 72 0 9 2 8 6 -2 3 -8 12 -27 20 -42z
m314 20 c-2 -7 -4 -28 -5 -47 -2 -30 -6 -36 -40 -48 -37 -12 -38 -12 -23 5 9
9 19 40 23 69 6 47 8 51 28 43 11 -4 19 -14 17 -22z m-650 -45 c13 -15 12 -15
-8 -4 -24 12 -29 21 -14 21 5 0 15 -7 22 -17z m55 2 c-11 -8 -22 -12 -25 -9
-6 6 19 24 34 24 6 -1 1 -7 -9 -15z m164 -9 c25 -28 21 -56 -7 -56 -25 0 -49
30 -45 58 4 29 23 28 52 -2z m-100 -1 c-7 -8 -17 -15 -22 -15 -6 0 -5 7 2 15
7 8 17 15 22 15 6 0 5 -7 -2 -15z m550 5 c0 -5 -2 -10 -4 -10 -3 0 -8 5 -11
10 -3 6 -1 10 4 10 6 0 11 -4 11 -10z m-35 -70 c-38 -38 -71 -67 -74 -64 -3 3
9 16 26 30 20 15 30 30 26 39 -3 9 1 15 8 15 8 1 28 12 44 25 52 43 42 27 -30
-45z m-685 51 c0 -6 -4 -13 -10 -16 -5 -3 -10 1 -10 9 0 9 5 16 10 16 6 0 10
-4 10 -9z m-93 -143 c-3 -7 -5 -2 -5 12 0 14 2 19 5 13 2 -7 2 -19 0 -25z
m271 -37 c11 -7 9 -13 -9 -30 -15 -13 -25 -17 -29 -10 -4 6 -13 10 -21 9 -34
-5 -40 -1 -27 20 13 21 61 27 86 11z m92 -26 c10 -12 10 -15 -4 -15 -9 0 -16
7 -16 15 0 8 2 15 4 15 2 0 9 -7 16 -15z m-249 -58 c-10 -9 -11 -8 -5 6 3 10
9 15 12 12 3 -3 0 -11 -7 -18z"/>
<path d="M816 783 c-6 -14 -5 -15 5 -6 7 7 10 15 7 18 -3 3 -9 -2 -12 -12z"/>
<path d="M330 1169 c0 -5 5 -7 10 -4 6 3 10 8 10 11 0 2 -4 4 -10 4 -5 0 -10
-5 -10 -11z"/>
<path d="M266 1084 c-9 -24 -7 -54 4 -54 6 0 10 16 10 35 0 38 -4 44 -14 19z"/>
</g>
</svg>
